<?xml version="1.0" encoding="utf-8"?>
<!-- Generator: Adobe Illustrator 18.1.1, SVG Export Plug-In . SVG Version: 6.00 Build 0)  -->
<svg version="1.1" id="Layer_1" xmlns="http://www.w3.org/2000/svg" xmlns:xlink="http://www.w3.org/1999/xlink" x="0px" y="0px"
	 viewBox="234 311.1 144 169.8" enable-background="new 234 311.1 144 169.8" xml:space="preserve">
<g>
	<g>
		<polygon fill="#416EB6" points="270,455.1 285.4,439.7 277.7,429.4 		"/>
		<polygon fill="#214188" points="277.7,429.4 277.7,429.4 285.4,439.7 285.4,409.9 270,419.1 		"/>
		<polygon fill="#182550" points="342,419.1 346.7,400.4 326.6,403.7 316.3,403.7 326.6,409.9 326.6,409.9 		"/>
		<polygon fill="#214188" points="326.6,409.9 326.6,439.7 334.3,429.4 334.3,429.4 342,419.1 		"/>
		<polygon fill="#416EB6" points="342,455.1 334.3,429.4 326.6,439.7 		"/>
		<polygon fill="#182550" points="265.3,400.4 270,419.1 285.4,409.9 285.4,409.9 295.7,403.7 285.4,403.7 		"/>
		<polygon fill="#182550" points="295.7,434.6 316.3,403.7 295.7,403.7 		"/>
		<polygon fill="#8FB5E0" points="306,480.9 316.3,462.9 308.6,459 		"/>
		<polygon fill="#416EB6" points="300.9,455.1 308.6,442.3 308.6,442.3 316.3,429.4 306,432 		"/>
		<polygon fill="#6F9AD1" points="316.3,462.9 308.6,442.3 300.9,455.1 		"/>
		<polygon fill="#214188" points="316.3,429.4 306,419.1 295.7,434.6 306,432 		"/>
	</g>
	<g>
		<g>
			<g>
				<polygon fill="#6F9AD1" points="234,383.1 254.6,398.6 259.7,357.4 				"/>
			</g>
			<g>
				<polygon fill="#3663AE" points="352.3,357.4 336.9,321.4 306,347.1 				"/>
			</g>
			<g>
				<polygon fill="#D8E7F6" points="306,347.1 275.1,321.4 259.7,357.4 				"/>
			</g>
			<g>
				<polygon fill="#1F3162" points="326.6,403.7 357.4,398.6 352.3,357.4 				"/>
			</g>
			<g>
				<polygon fill="#8FB5E0" points="306,311.1 275.1,321.4 336.9,321.4 				"/>
			</g>
			<g>
				<polygon fill="#214188" points="285.4,403.7 326.6,403.7 306,347.1 				"/>
			</g>
			<g>
				<polygon fill="#1F3162" points="378,383.1 367.7,342 352.3,357.4 				"/>
			</g>
			<g>
				<polygon fill="#B2CEEC" points="336.9,321.4 275.1,321.4 306,347.1 				"/>
			</g>
			<g>
				<polygon fill="#B2CEEC" points="275.1,321.4 244.3,342 259.7,357.4 				"/>
			</g>
			<g>
				<polygon fill="#8FB5E0" points="244.3,342 234,383.1 259.7,357.4 				"/>
			</g>
			<g>
				<polygon fill="#416EB6" points="259.7,357.4 285.4,403.7 306,347.1 				"/>
			</g>
			<g>
				<polygon fill="#4F7FC1" points="254.6,398.6 285.4,403.7 259.7,357.4 				"/>
			</g>
			<g>
				<polygon fill="#233974" points="306,347.1 326.6,403.7 352.3,357.4 				"/>
			</g>
			<g>
				<polygon fill="#182550" points="352.3,357.4 357.4,398.6 378,383.1 				"/>
			</g>
			<g>
				<polygon fill="#214188" points="367.7,342 336.9,321.4 352.3,357.4 				"/>
			</g>
		</g>
	</g>
</g>
</svg>
